<svg width="35" height="35" viewBox="0 0 35 35" fill="none" xmlns="http://www.w3.org/2000/svg">
<path d="M21.3863 3.39792C21.6457 3.26826 21.9459 3.24688 22.221 3.33849C22.4961 3.4301 22.7236 3.6272 22.8534 3.88646L26.0632 10.306C28.0363 10.4577 29.2744 10.8456 30.0736 11.8329C30.7094 12.619 30.9136 13.596 30.8392 14.9479H4.16048C4.08611 13.596 4.29173 12.619 4.92611 11.8329C5.72527 10.8442 6.9634 10.4577 8.93652 10.306L12.1463 3.88646C12.2772 3.62926 12.5045 3.43422 12.7786 3.34386C13.0527 3.25349 13.3514 3.27512 13.6096 3.40404C13.8678 3.53295 14.0646 3.7587 14.1571 4.03209C14.2496 4.30547 14.2303 4.60433 14.1034 4.86354L11.4274 10.2156C12.1317 10.2083 12.9003 10.2083 13.7403 10.2083H21.2594C22.0994 10.2083 22.868 10.2083 23.5724 10.2156L20.8963 4.86354C20.7668 4.60402 20.7456 4.30365 20.8375 4.02853C20.9294 3.7534 21.1268 3.5275 21.3863 3.39792Z" fill="#A2B2BF"/>
<path fill-rule="evenodd" clip-rule="evenodd" d="M5.18418 20.7915C4.91517 19.5772 4.66721 18.3583 4.44043 17.1354H30.5592C30.3322 18.3583 30.0843 19.5771 29.8154 20.7915L29.1898 23.7081C28.4796 27.0229 28.1252 28.6796 26.9221 29.6523C25.719 30.625 24.0244 30.625 20.6352 30.625H14.3644C10.9752 30.625 9.28064 30.625 8.07897 29.6523C6.87439 28.6796 6.51855 27.0229 5.8098 23.7081L5.18418 20.7915ZM14.5831 19.3229C14.2931 19.3229 14.0149 19.4382 13.8097 19.6433C13.6046 19.8484 13.4894 20.1266 13.4894 20.4167C13.4894 20.7068 13.6046 20.985 13.8097 21.1901C14.0149 21.3952 14.2931 21.5104 14.5831 21.5104H20.4165C20.7066 21.5104 20.9848 21.3952 21.1899 21.1901C21.395 20.985 21.5102 20.7068 21.5102 20.4167C21.5102 20.1266 21.395 19.8484 21.1899 19.6433C20.9848 19.4382 20.7066 19.3229 20.4165 19.3229H14.5831Z" fill="#A2B2BF"/>
</svg>
