<svg width="35" height="35" viewBox="0 0 35 35" fill="none" xmlns="http://www.w3.org/2000/svg">
<g clip-path="url(#clip0_2734_95)">
<path fill-rule="evenodd" clip-rule="evenodd" d="M15.3123 2.91666C13.3356 2.91683 11.3877 3.3897 9.63097 4.2958C7.87425 5.20191 6.35969 6.51498 5.21365 8.12547C4.0676 9.73596 3.32332 11.5972 3.04288 13.5538C2.76244 15.5105 2.95398 17.5058 3.60152 19.3733C4.24906 21.2409 5.33383 22.9265 6.76531 24.2896C8.1968 25.6527 9.9335 26.6536 11.8305 27.209C13.7275 27.7644 15.7298 27.858 17.6704 27.4822C19.611 27.1063 21.4335 26.2718 22.986 25.0483L28.3118 30.3742C28.5869 30.6398 28.9553 30.7868 29.3376 30.7835C29.72 30.7802 30.0858 30.6268 30.3562 30.3564C30.6265 30.086 30.7799 29.7202 30.7832 29.3379C30.7866 28.9555 30.6396 28.5871 30.3739 28.3121L25.0481 22.9862C26.4889 21.1584 27.386 18.9618 27.6368 16.6479C27.8875 14.334 27.4818 11.9963 26.4659 9.90222C25.4501 7.80816 23.8652 6.04239 21.8927 4.807C19.9202 3.57161 17.6397 2.91651 15.3123 2.91666ZM5.83309 15.3125C5.83309 12.7985 6.83179 10.3874 8.60948 8.60971C10.3872 6.83203 12.7982 5.83333 15.3123 5.83333C17.8263 5.83333 20.2374 6.83203 22.015 8.60971C23.7927 10.3874 24.7914 12.7985 24.7914 15.3125C24.7914 17.8265 23.7927 20.2376 22.015 22.0153C20.2374 23.793 17.8263 24.7917 15.3123 24.7917C12.7982 24.7917 10.3872 23.793 8.60948 22.0153C6.83179 20.2376 5.83309 17.8265 5.83309 15.3125Z" fill="#A2B2BF"/>
</g>
<defs>
<clipPath id="clip0_2734_95">
<rect width="35" height="35" fill="white"/>
</clipPath>
</defs>
</svg>
